<svg width="463" height="496" viewBox="0 0 463 496" fill="none" xmlns="http://www.w3.org/2000/svg">
<path d="M104.096 468.773C124.814 469.565 281.535 473.057 385.622 352.076C464.624 260.229 470.419 146.517 457.876 82.3417C454.151 63.3388 442.664 4.56403 416.73 1.29538C408.182 0.219362 397.668 5.13249 392.783 12.9285C378.75 35.3421 416.44 73.1042 403.587 86.7879C399.882 90.7265 392.721 91.8837 388.209 89.6911C375.977 83.7425 389.14 56.091 375.211 32.4998C364.842 14.8978 341.474 3.06167 332.326 8.74628C319.763 16.5626 336.548 55.9488 344.807 94.2388C344.807 94.2388 365.794 191.689 323.364 293.038C273.173 412.922 136.281 458.825 104.096 468.773Z" fill="url(#paint0_linear_531_767)"/>
<path d="M264.936 421.551C285.571 399.726 293.788 367.913 343.793 315.716C396.323 260.879 414.35 267.701 423.519 240.658C446.638 172.342 337.646 111.557 354.845 28.0337C355.777 23.547 357.019 19.2226 358.53 15.0606C365.008 19.4865 371.134 25.5366 375.232 32.5002C389.141 56.0914 375.998 83.7429 388.23 89.6915C392.742 91.8841 399.904 90.7269 403.608 86.7882C416.461 73.1046 378.772 35.3425 392.804 12.9289C397.668 5.11258 408.182 0.19906 416.73 1.29538C442.664 4.56403 454.151 63.3388 457.876 82.3417C470.439 146.517 464.644 260.229 385.622 352.076C281.535 473.057 124.835 469.565 104.096 468.773C111.713 466.418 125.188 462.054 141.973 455.171C209.612 458.826 245.17 442.442 264.936 421.551Z" fill="url(#paint1_linear_531_767)"/>
<path d="M86.7938 458.583C81.7229 449.894 138.723 427.155 178.09 365.64C193.075 342.231 225.238 282.38 225.176 207.567C225.156 176.342 219.505 137.788 232.027 133.586C237.036 131.901 245.584 135.535 249.309 141.057C252.6 145.909 250.51 149.807 253.345 161.197C253.656 162.435 256.657 174.495 258.996 174.292C261.976 174.048 258.354 154.395 268.682 134.256C271.062 129.586 277.996 116.045 283.895 116.613C296.955 117.892 310.636 185.072 300.494 246.892C286.482 332.283 227.598 403.787 159.379 438.91C127.754 455.213 90.7677 465.384 86.7938 458.583Z" fill="url(#paint2_linear_531_767)"/>
<path d="M201.292 371.345C248.254 322.254 283.005 284.918 277.375 242.426C274.167 218.286 260.797 214.064 249.703 188.138C243.763 174.251 239.582 156.669 240.472 134.337C243.949 135.677 247.343 138.093 249.351 141.037C252.642 145.889 250.551 149.787 253.387 161.176C253.697 162.415 256.698 174.474 259.037 174.271C262.018 174.028 258.396 154.375 268.724 134.235C271.124 129.566 278.037 116.024 283.936 116.593C296.996 117.872 310.677 185.052 300.535 246.872C286.523 332.263 227.639 403.767 159.421 438.89C128.127 455.01 91.6164 465.12 86.9595 458.786C96.6251 455.883 106.187 452.107 115.522 447.295C141.311 434.038 161.304 413.147 201.292 371.345Z" fill="url(#paint3_linear_531_767)"/>
<path d="M83.3784 138.336C92.7336 140.508 105.669 143.533 108.464 138.965C111.403 134.174 101.364 123.84 103.517 121.952C105.214 120.45 111.03 127.413 118.543 126.215C122.621 125.566 127.36 122.5 128.002 118.663C128.954 112.877 119.826 109.73 120.737 103.396C121.151 100.472 123.655 97.224 126.636 96.6758C132.969 95.5186 135.722 107.74 145.884 109.791C152.28 111.09 159.834 108.004 163.829 103.173C170.452 95.1329 164.864 84.9614 170.059 81.7334C174.26 79.1144 179.476 84.7787 188.521 86.8496C202.574 90.0573 219.381 83.0733 228.632 72.5162C241.154 58.2641 241.713 35.485 232.792 21.639C212.84 -9.34216 139.82 -4.63206 121.42 23.3443C115.583 32.2367 107.242 55.6451 103.434 76.2721C102.358 82.0988 101.282 89.631 95.1345 94.5847C87.2281 100.96 79.5701 96.1073 69.2008 102.056C60.6735 106.949 52.912 117.648 55.3749 125.464C57.5275 132.306 66.7792 134.458 83.3784 138.336Z" fill="url(#paint4_linear_531_767)"/>
<path d="M184.982 173.58C184.692 175.326 210.73 204.378 214.993 218.346L165.154 233.167C165.154 233.167 134.315 210.936 124.484 210.936L184.982 173.58Z" fill="url(#paint5_linear_531_767)"/>
<path d="M184.712 169.398C185.582 169.419 195.04 184.138 195.744 187.873C195.744 187.873 154.618 208.277 146.484 220.803L117.053 209.008C117.032 209.008 166.085 168.911 184.712 169.398Z" fill="url(#paint6_linear_531_767)"/>
<path d="M218.966 224.336C218.966 224.336 211.536 206.328 206.92 203.384C202.305 200.441 175.108 209.922 158.116 228.762L166.25 235.381L218.966 224.336Z" fill="url(#paint7_linear_531_767)"/>
<path d="M282.839 79.6626C282.839 79.6626 295.03 76.1706 302.274 77.9166C309.518 79.6626 306.889 88.5346 305.606 91.2348C304.323 93.9147 286.606 88.0271 286.606 88.0271L282.839 79.6626Z" fill="url(#paint8_linear_531_767)"/>
<path d="M10.6678 172.972C11.2473 167.429 10.9783 162.963 10.6057 159.836C10.0469 155.228 9.219 153.258 7.68741 152.67C6.50768 152.223 5.28657 152.751 4.91403 152.913C0.795311 154.7 -0.301663 161.724 0.0708839 166.191C0.526219 171.51 3.23756 175.388 4.91403 177.377C6.83885 175.895 8.74299 174.433 10.6678 172.972Z" fill="url(#paint9_linear_531_767)"/>
<path d="M284.287 75.2365C286.46 80.7384 288.654 86.22 290.828 91.7219C283.087 97.3049 271.372 103.984 256.263 105.771C240.388 107.659 235.752 102.36 223.313 106.482C209.777 110.968 210.729 118.724 192.287 128.834C177.717 136.833 169.789 136.001 169.086 140.772C168.154 147.005 181.173 151.491 198.869 171.591C205.534 179.163 206.527 181.742 205.782 183.813C203.464 190.35 186.658 183.63 169.127 190.939C145.636 200.724 140.461 227.503 129.016 225.209C126.677 224.742 126.118 223.483 118.294 214.692C111.092 206.612 104.903 200.217 100.64 195.913C94.6581 198.633 87.1864 202.734 79.6525 209.048C63.2602 222.793 61.6252 234.426 45.9987 241.491C40.9692 243.765 33.0421 247.358 25.8188 244.333C21.4102 242.486 17.1051 238.121 9.6541 210.753C6.15625 197.862 3.85885 186.939 2.41003 179.042C6.09416 176.341 9.79899 173.641 13.4831 170.921C17.9537 175.692 23.956 183.346 27.6608 193.984C31.614 205.353 30.2273 212.296 34.2218 214.002C39.1892 216.113 45.9158 207.383 61.8528 192.482C83.6057 172.118 87.7659 172.748 101.674 157.338C114.507 143.127 114.051 139.168 122.434 129.525C127.318 123.901 142.365 108.065 213.44 89.7119C230.805 85.2252 254.918 79.703 284.287 75.2365Z" fill="url(#paint10_linear_531_767)"/>
<path d="M170.617 173.296C172.563 160.018 136.653 149.258 139.012 138.011C140.254 132.062 150.976 131.981 168.755 125.464C201.229 113.547 198.062 101.832 221.678 95.6199C247.177 88.8999 259.554 100.289 278.057 89.1841C281.555 87.093 284.494 84.6364 286.978 82.0783C288.261 85.3064 289.544 88.5344 290.828 91.7625C283.087 97.3456 271.372 104.025 256.263 105.812C240.388 107.7 235.752 102.401 223.313 106.522C209.777 111.009 210.729 118.764 192.287 128.875C177.716 136.874 169.789 136.042 169.086 140.813C168.154 147.045 181.173 151.532 198.869 171.631C205.534 179.204 206.527 181.782 205.782 183.853C203.464 190.39 186.658 183.67 169.127 190.979C145.636 200.765 140.461 227.543 129.016 225.249C128.809 225.209 128.602 225.148 128.415 225.087C128.684 216.073 130.775 206.104 137.315 197.76C149.651 181.924 169.21 182.919 170.617 173.296Z" fill="url(#paint11_linear_531_767)"/>
<path d="M30.4349 238.751C39.8936 238.385 42.5014 226.305 63.6334 208.906C72.0572 201.963 90.1674 186.919 98.9638 192.299C99.771 192.786 101.924 194.309 103.29 198.613C102.337 197.639 101.447 196.725 100.62 195.893C94.638 198.613 87.1663 202.714 79.6325 209.028C63.2402 222.773 61.6051 234.406 45.9786 241.471C40.9491 243.745 33.022 247.338 25.7986 244.313C22.7561 243.034 19.755 240.557 15.7397 230.122C21.7627 237.187 26.6679 238.893 30.4349 238.751Z" fill="url(#paint12_linear_531_767)"/>
<path d="M86.855 133.889C86.855 133.889 104.862 147.248 117.032 136.569C117.032 136.569 121.254 156.181 95.196 169.418C95.196 169.418 104.944 160.566 83.5848 147.309L86.855 133.889Z" fill="url(#paint13_linear_531_767)"/>
<path d="M63.8403 123.089C63.8403 123.089 64.3371 142.275 72.0572 151.715C73.1541 153.035 74.9548 153.603 76.6106 153.096C80.7915 151.817 88.6564 148.02 90.4571 137.463C90.4571 137.463 94.6173 131.839 94.0171 129.363C93.4169 126.906 88.9669 127.799 87.5388 130.906C86.1107 134.012 84.1651 128.51 84.786 127.474C85.4277 126.419 79.7152 115.74 63.8403 123.089Z" fill="url(#paint14_linear_531_767)"/>
<path d="M215.448 222.143C250.902 235.523 255.435 246.973 256.263 251.318C256.408 252.13 257.215 256.799 257.919 262.849C259.285 274.523 258.581 276.878 259.989 280.898C262.431 287.841 267.688 289.851 274.021 295.231C292.339 310.762 286.73 326.314 303.35 337.643C311.173 342.982 317.796 343.185 323.012 344.606C339.322 349.052 358.943 370.004 372.458 443.661C369.105 447.396 365.773 451.132 362.42 454.847C345.075 416.679 323.716 393.88 307.758 380.237C275.325 352.504 249.764 349.458 218.552 318.132C197.503 296.998 185.664 274.848 179.124 260.129C191.253 247.46 203.361 234.792 215.448 222.143Z" fill="url(#paint15_linear_531_767)"/>
<path d="M202.285 235.909C227.08 239.38 235.711 247.461 238.96 254.363C243.99 265.042 236.166 272.838 238.277 294.399C238.691 298.642 240.658 318.802 252.103 333.075C269.075 354.23 294.367 346.86 315.044 358.513C328.953 366.35 343.317 384.236 347.911 427.581C334.106 405.229 319.473 390.266 307.738 380.257C275.305 352.524 249.744 349.479 218.532 318.153C197.483 297.018 185.644 274.868 179.104 260.149C186.865 252.049 194.585 243.989 202.285 235.909Z" fill="url(#paint16_linear_531_767)"/>
<path d="M222.195 224.803C233.061 230.284 243.555 242.75 242.624 256.17C241.754 268.513 231.468 278.522 221.637 283.09C204.437 291.069 193.364 280.207 158.054 280.025C137.543 279.923 118.936 283.476 118.626 287.618C118.336 291.536 134.977 291.231 144.912 304.245C148.678 309.179 149.796 313.828 152.528 332.749C153.998 342.921 155.695 355.772 157.371 370.735C155.198 373.11 153.046 375.486 150.872 377.861C131.024 355.934 101.302 321.096 79.7977 285.912C76.6103 280.695 72.4502 273.569 74.6027 266.179C78.7629 251.825 102.172 252.292 148.885 239.217C193.964 226.549 205.969 216.621 222.195 224.803Z" fill="url(#paint17_linear_531_767)"/>
<path d="M124.504 266.24L110.326 258.565C154.95 242.831 205.1 237.512 235.483 235.725C239.085 240.253 241.713 245.572 242.458 251.216C183.554 250.241 124.504 266.24 124.504 266.24Z" fill="url(#paint18_linear_531_767)"/>
<path d="M134.79 272.675L128.395 269.63C174.612 256.921 222.547 258.464 242.044 259.926C240.305 267.498 235.131 273.975 229.108 278.543C191.439 266.808 134.79 272.675 134.79 272.675Z" fill="url(#paint19_linear_531_767)"/>
<path d="M374.197 435.783C374.197 435.783 379.392 438.93 381.42 438.849C383.448 438.767 390.713 437.468 389.802 444.269C388.892 451.07 383.138 479.859 380.116 486.823C377.094 493.806 374.983 495.816 367.429 494.619C364.262 494.111 369.457 486.457 368.65 482.255C367.843 478.052 358.777 451.801 358.777 451.801C358.777 451.801 366.456 443.315 367.139 440.615C367.822 437.935 369.395 432.717 374.197 435.783Z" fill="url(#paint20_linear_531_767)"/>
<path d="M377.26 474.398V452.248C377.26 448.635 378.108 445.082 379.743 441.854L381.275 438.849C381.316 438.849 381.379 438.849 381.42 438.849C383.448 438.767 393.569 434.849 391.479 445.021C390.113 451.741 383.779 481.686 380.758 488.67C377.736 495.654 373.948 496.405 366.373 495.187C365.027 494.984 366.228 492.913 366.787 490.924L370.74 487.777C374.879 484.508 377.26 479.595 377.26 474.398Z" fill="#B2B8C1"/>
<path d="M162.67 363.71C162.67 363.71 167.554 366.674 169.458 366.593C171.363 366.512 178.172 365.294 177.323 371.689C176.475 378.064 171.073 405.045 168.237 411.603C165.402 418.14 163.435 420.028 156.336 418.912C153.377 418.445 158.24 411.278 157.475 407.319C156.709 403.381 148.223 378.774 148.223 378.774C148.223 378.774 155.426 370.816 156.067 368.278C156.688 365.74 158.158 360.848 162.67 363.71Z" fill="url(#paint21_linear_531_767)"/>
<path d="M165.547 399.93V379.161C165.547 375.77 166.354 372.441 167.886 369.415L169.314 366.593C169.355 366.593 169.417 366.593 169.458 366.593C171.363 366.512 180.842 362.838 178.897 372.38C177.614 378.694 171.694 406.772 168.838 413.309C166.002 419.846 162.442 420.557 155.364 419.42C154.102 419.217 155.219 417.288 155.757 415.42L159.462 412.476C163.291 409.411 165.547 404.802 165.547 399.93Z" fill="white"/>
<defs>
<linearGradient id="paint0_linear_531_767" x1="230.648" y1="345.063" x2="183.614" y2="148.356" gradientUnits="userSpaceOnUse">
<stop stop-color="#FF9085"/>
<stop offset="1" stop-color="#FB6FBB"/>
</linearGradient>
<linearGradient id="paint1_linear_531_767" x1="230.656" y1="345.064" x2="183.621" y2="148.36" gradientUnits="userSpaceOnUse">
<stop stop-color="#FF9085"/>
<stop offset="1" stop-color="#FB6FBB"/>
</linearGradient>
<linearGradient id="paint2_linear_531_767" x1="215.6" y1="305.797" x2="279.241" y2="601.84" gradientUnits="userSpaceOnUse">
<stop stop-color="#FFC444"/>
<stop offset="0.9964" stop-color="#F36F56"/>
</linearGradient>
<linearGradient id="paint3_linear_531_767" x1="215.076" y1="306.056" x2="278.601" y2="602.157" gradientUnits="userSpaceOnUse">
<stop stop-color="#FFC444"/>
<stop offset="0.9964" stop-color="#F36F56"/>
</linearGradient>
<linearGradient id="paint4_linear_531_767" x1="3.84888" y1="-270.335" x2="698.223" y2="666.684" gradientUnits="userSpaceOnUse">
<stop stop-color="#444B8C"/>
<stop offset="0.9964" stop-color="#26264F"/>
</linearGradient>
<linearGradient id="paint5_linear_531_767" x1="105.799" y1="45.0175" x2="736.455" y2="630.853" gradientUnits="userSpaceOnUse">
<stop stop-color="#FFC444"/>
<stop offset="0.9964" stop-color="#F36F56"/>
</linearGradient>
<linearGradient id="paint6_linear_531_767" x1="226.42" y1="-317.277" x2="240.417" y2="314.485" gradientUnits="userSpaceOnUse">
<stop stop-color="#311944"/>
<stop offset="1" stop-color="#A03976"/>
</linearGradient>
<linearGradient id="paint7_linear_531_767" x1="-0.0432125" y1="247.738" x2="463.039" y2="247.738" gradientUnits="userSpaceOnUse">
<stop stop-color="#311944"/>
<stop offset="1" stop-color="#A03976"/>
</linearGradient>
<linearGradient id="paint8_linear_531_767" x1="223.759" y1="687.598" x2="-20.3341" y2="6147.91" gradientUnits="userSpaceOnUse">
<stop stop-color="#FFC444"/>
<stop offset="0.9964" stop-color="#F36F56"/>
</linearGradient>
<linearGradient id="paint9_linear_531_767" x1="297.454" y1="-950.872" x2="259.776" y2="2243.18" gradientUnits="userSpaceOnUse">
<stop stop-color="#FFC444"/>
<stop offset="0.9964" stop-color="#F36F56"/>
</linearGradient>
<linearGradient id="paint10_linear_531_767" x1="0.00957477" y1="247.968" x2="463.011" y2="247.968" gradientUnits="userSpaceOnUse">
<stop offset="0.00359712" stop-color="#E38DDD"/>
<stop offset="1" stop-color="#9571F6"/>
</linearGradient>
<linearGradient id="paint11_linear_531_767" x1="0.0147303" y1="247.843" x2="463.059" y2="247.843" gradientUnits="userSpaceOnUse">
<stop offset="0.00359712" stop-color="#E38DDD"/>
<stop offset="1" stop-color="#9571F6"/>
</linearGradient>
<linearGradient id="paint12_linear_531_767" x1="-0.032096" y1="247.937" x2="462.942" y2="247.937" gradientUnits="userSpaceOnUse">
<stop offset="0.00359712" stop-color="#E38DDD"/>
<stop offset="1" stop-color="#9571F6"/>
</linearGradient>
<linearGradient id="paint13_linear_531_767" x1="-0.0791848" y1="247.855" x2="462.992" y2="247.855" gradientUnits="userSpaceOnUse">
<stop stop-color="#FFC444"/>
<stop offset="0.9964" stop-color="#F36F56"/>
</linearGradient>
<linearGradient id="paint14_linear_531_767" x1="498.957" y1="737.453" x2="-293.177" y2="-1280.89" gradientUnits="userSpaceOnUse">
<stop stop-color="#FFC444"/>
<stop offset="0.9964" stop-color="#F36F56"/>
</linearGradient>
<linearGradient id="paint15_linear_531_767" x1="-0.0268595" y1="247.993" x2="462.954" y2="247.993" gradientUnits="userSpaceOnUse">
<stop offset="0.00359712" stop-color="#E38DDD"/>
<stop offset="1" stop-color="#9571F6"/>
</linearGradient>
<linearGradient id="paint16_linear_531_767" x1="-0.0684839" y1="247.989" x2="462.891" y2="247.989" gradientUnits="userSpaceOnUse">
<stop offset="0.00359712" stop-color="#E38DDD"/>
<stop offset="1" stop-color="#9571F6"/>
</linearGradient>
<linearGradient id="paint17_linear_531_767" x1="0.0289294" y1="247.963" x2="463.047" y2="247.963" gradientUnits="userSpaceOnUse">
<stop offset="0.00359712" stop-color="#E38DDD"/>
<stop offset="1" stop-color="#9571F6"/>
</linearGradient>
<linearGradient id="paint18_linear_531_767" x1="27.647" y1="1669.23" x2="596.804" y2="1479.79" gradientUnits="userSpaceOnUse">
<stop offset="0.494" stop-color="#EBEFF2"/>
<stop offset="1" stop-color="white"/>
</linearGradient>
<linearGradient id="paint19_linear_531_767" x1="29.4273" y1="2009.5" x2="721.786" y2="1837.61" gradientUnits="userSpaceOnUse">
<stop offset="0.494" stop-color="#EBEFF2"/>
<stop offset="1" stop-color="white"/>
</linearGradient>
<linearGradient id="paint20_linear_531_767" x1="-0.0659702" y1="248.01" x2="463.22" y2="248.01" gradientUnits="userSpaceOnUse">
<stop stop-color="#311944"/>
<stop offset="1" stop-color="#A03976"/>
</linearGradient>
<linearGradient id="paint21_linear_531_767" x1="0.338446" y1="247.904" x2="463.456" y2="247.904" gradientUnits="userSpaceOnUse">
<stop stop-color="#311944"/>
<stop offset="1" stop-color="#A03976"/>
</linearGradient>
</defs>
</svg>
