<svg width="463" height="492" viewBox="0 0 463 492" fill="none" xmlns="http://www.w3.org/2000/svg">
<path d="M104.096 464.604C124.814 465.389 281.535 468.849 385.622 348.979C464.624 257.975 470.419 145.307 457.876 81.7212C454.151 62.8929 442.664 4.65784 416.73 1.41921C408.182 0.353074 397.668 5.22108 392.783 12.9455C378.75 35.1533 416.44 72.5686 403.587 86.1266C399.882 90.029 392.721 91.1756 388.209 89.0031C375.977 83.1092 389.14 55.7116 375.211 32.3371C364.842 14.8968 341.474 3.16928 332.326 8.80169C319.763 16.5462 336.548 55.5708 344.807 93.5091C344.807 93.5091 365.794 190.065 323.364 290.482C273.173 409.266 136.281 454.748 104.096 464.604Z" fill="url(#paint0_linear_405_7)"/>
<path d="M264.936 417.815C285.571 396.191 293.788 364.67 343.793 312.952C396.323 258.619 414.35 265.378 423.519 238.584C446.638 170.895 337.646 110.668 354.845 27.912C355.777 23.4665 357.019 19.1818 358.53 15.0581C365.008 19.4433 371.134 25.4378 375.232 32.3375C389.141 55.712 375.998 83.1096 388.23 89.0035C392.742 91.176 399.904 90.0294 403.608 86.127C416.461 72.569 378.772 35.1537 392.804 12.9459C397.668 5.20136 408.182 0.332959 416.73 1.41921C442.664 4.65784 454.151 62.8929 457.876 81.7212C470.439 145.307 464.644 257.975 385.622 348.979C281.535 468.849 124.835 465.389 104.096 464.604C111.713 462.271 125.188 457.946 141.973 451.127C209.612 454.748 245.17 438.514 264.936 417.815Z" fill="url(#paint1_linear_405_7)"/>
<path d="M86.7938 454.508C81.7229 445.898 138.723 423.368 178.09 362.418C193.075 339.224 225.238 279.923 225.176 205.796C225.156 174.858 219.505 136.659 232.027 132.495C237.036 130.825 245.584 134.426 249.309 139.897C252.6 144.705 250.51 148.567 253.345 159.852C253.656 161.079 256.657 173.028 258.996 172.827C261.976 172.585 258.354 153.113 268.682 133.158C271.062 128.532 277.996 115.115 283.895 115.678C296.955 116.945 310.636 183.508 300.494 244.761C286.482 329.367 227.598 400.215 159.379 435.015C127.754 451.168 90.7677 461.246 86.7938 454.508Z" fill="url(#paint2_linear_405_7)"/>
<path d="M201.292 368.07C248.254 319.43 283.005 282.437 277.375 240.335C274.167 216.418 260.796 212.233 249.703 186.546C243.763 172.787 239.582 155.366 240.472 133.239C243.949 134.567 247.343 136.96 249.351 139.877C252.642 144.685 250.551 148.547 253.387 159.832C253.697 161.059 256.698 173.008 259.037 172.807C262.018 172.565 258.396 153.093 268.724 133.138C271.124 128.512 278.037 115.095 283.936 115.658C296.996 116.925 310.677 183.488 300.535 244.741C286.523 329.347 227.639 400.195 159.421 434.995C128.127 450.967 91.6164 460.985 86.9595 454.709C96.6251 451.832 106.187 448.091 115.522 443.323C141.311 430.188 161.304 409.488 201.292 368.07Z" fill="url(#paint3_linear_405_7)"/>
<path d="M83.3784 137.201C92.7336 139.354 105.669 142.351 108.464 137.825C111.403 133.078 101.364 122.839 103.517 120.968C105.214 119.479 111.03 126.379 118.543 125.192C122.621 124.548 127.36 121.511 128.002 117.709C128.954 111.976 119.826 108.858 120.737 102.582C121.151 99.6854 123.655 96.4669 126.636 95.9238C132.969 94.7772 135.722 106.887 145.884 108.919C152.28 110.206 159.834 107.148 163.829 102.361C170.452 94.395 164.864 84.317 170.059 81.1186C174.26 78.5236 179.476 84.1359 188.521 86.1877C202.574 89.366 219.381 82.4462 228.632 71.986C241.154 57.8648 241.713 35.2949 232.792 21.576C212.84 -9.12064 139.82 -4.45379 121.42 23.2657C115.583 32.0764 107.242 55.2698 103.434 75.7074C102.358 81.4806 101.282 88.9436 95.1345 93.8518C87.2281 100.168 79.5701 95.3605 69.2008 101.254C60.6735 106.102 52.912 116.703 55.3749 124.448C57.5275 131.227 66.7792 133.359 83.3784 137.201Z" fill="url(#paint4_linear_405_7)"/>
<path d="M184.982 172.122C184.692 173.852 210.73 202.637 214.993 216.477L165.154 231.161C165.154 231.161 134.315 209.135 124.484 209.135L184.982 172.122Z" fill="url(#paint5_linear_405_7)"/>
<path d="M184.712 167.978C185.582 167.999 195.04 182.582 195.744 186.284C195.744 186.284 154.618 206.5 146.484 218.912L117.053 207.224C117.032 207.224 166.085 167.496 184.712 167.978Z" fill="url(#paint6_linear_405_7)"/>
<path d="M218.966 222.412C218.966 222.412 211.536 204.569 206.92 201.652C202.305 198.736 175.108 208.13 158.116 226.797L166.25 233.355L218.966 222.412Z" fill="url(#paint7_linear_405_7)"/>
<path d="M282.839 79.0667C282.839 79.0667 295.03 75.6069 302.274 77.3368C309.518 79.0667 306.889 87.8573 305.606 90.5327C304.323 93.188 286.606 87.3544 286.606 87.3544L282.839 79.0667Z" fill="url(#paint8_linear_405_7)"/>
<path d="M10.6678 171.519C11.2473 166.027 10.9783 161.602 10.6057 158.504C10.0469 153.938 9.219 151.987 7.68741 151.403C6.50768 150.961 5.28657 151.484 4.91403 151.645C0.795311 153.415 -0.301663 160.375 0.0708839 164.8C0.526219 170.071 3.23756 173.913 4.91403 175.884C6.83885 174.416 8.74299 172.967 10.6678 171.519Z" fill="url(#paint9_linear_405_7)"/>
<path d="M284.287 74.6813C286.46 80.1327 288.654 85.5639 290.828 91.0153C283.087 96.5471 271.372 103.165 256.263 104.935C240.388 106.806 235.752 101.556 223.313 105.639C209.777 110.085 210.729 117.769 192.287 127.787C177.717 135.712 169.789 134.888 169.086 139.615C168.154 145.79 181.173 150.236 198.869 170.151C205.534 177.654 206.527 180.208 205.782 182.26C203.464 188.738 186.658 182.079 169.127 189.321C145.636 199.017 140.461 225.549 129.016 223.276C126.677 222.814 126.118 221.566 118.294 212.856C111.092 204.85 104.903 198.514 100.64 194.249C94.6581 196.945 87.1864 201.008 79.6525 207.264C63.2602 220.882 61.6252 232.409 45.9987 239.409C40.9692 241.662 33.0421 245.223 25.8188 242.225C21.4102 240.395 17.1051 236.07 9.6541 208.954C6.15625 196.18 3.85885 185.358 2.41003 177.533C6.09416 174.858 9.79899 172.182 13.4831 169.487C17.9537 174.214 23.956 181.798 27.6608 192.338C31.614 203.603 30.2273 210.483 34.2218 212.172C39.1892 214.264 45.9158 205.615 61.8528 190.85C83.6057 170.674 87.7659 171.297 101.674 156.029C114.507 141.948 114.051 138.026 122.434 128.471C127.318 122.899 142.365 107.208 213.44 89.0238C230.805 84.5782 254.918 79.1068 284.287 74.6813Z" fill="url(#paint10_linear_405_7)"/>
<path d="M170.617 171.84C172.563 158.685 136.653 148.023 139.012 136.879C140.254 130.985 150.976 130.905 168.755 124.448C201.229 112.64 198.062 101.033 221.678 94.8775C247.177 88.2192 259.554 99.5041 278.057 88.5008C281.555 86.4289 284.494 83.9949 286.978 81.4603C288.261 84.6587 289.544 87.8571 290.828 91.0555C283.087 96.5874 271.372 103.205 256.263 104.976C240.388 106.846 235.752 101.596 223.313 105.68C209.777 110.125 210.729 117.809 192.287 127.827C177.716 135.753 169.789 134.928 169.086 139.655C168.154 145.831 181.173 150.276 198.869 170.191C205.534 177.694 206.527 180.249 205.782 182.301C203.464 188.778 186.658 182.119 169.127 189.361C145.636 199.057 140.461 225.59 129.016 223.317C128.809 223.276 128.602 223.216 128.415 223.156C128.684 214.224 130.775 204.347 137.315 196.08C149.651 180.39 169.21 181.375 170.617 171.84Z" fill="url(#paint11_linear_405_7)"/>
<path d="M30.4349 236.694C39.8936 236.332 42.5014 224.363 63.6334 207.124C72.0572 200.244 90.1674 185.338 98.9638 190.669C99.771 191.152 101.924 192.66 103.29 196.925C102.337 195.959 101.447 195.054 100.62 194.229C94.638 196.925 87.1663 200.988 79.6325 207.244C63.2402 220.863 61.6051 232.389 45.9786 239.389C40.9491 241.642 33.022 245.203 25.7986 242.206C22.7561 240.938 19.755 238.484 15.7397 228.145C21.7627 235.145 26.668 236.835 30.4349 236.694Z" fill="url(#paint12_linear_405_7)"/>
<path d="M86.855 132.795C86.855 132.795 104.862 146.031 117.032 135.451C117.032 135.451 121.254 154.882 95.196 167.998C95.196 167.998 104.944 159.227 83.5848 146.092L86.855 132.795Z" fill="url(#paint13_linear_405_7)"/>
<path d="M63.8403 122.095C63.8403 122.095 64.3371 141.104 72.0572 150.458C73.1541 151.765 74.9548 152.328 76.6106 151.826C80.7915 150.558 88.6564 146.797 90.4571 136.336C90.4571 136.336 94.6173 130.764 94.0171 128.31C93.4169 125.876 88.9669 126.761 87.5388 129.839C86.1107 132.917 84.1651 127.465 84.786 126.44C85.4277 125.394 79.7152 114.813 63.8403 122.095Z" fill="url(#paint14_linear_405_7)"/>
<path d="M215.448 220.239C250.902 233.495 255.435 244.841 256.263 249.146C256.408 249.95 257.215 254.577 257.919 260.571C259.285 272.138 258.581 274.471 259.989 278.454C262.431 285.334 267.688 287.325 274.021 292.656C292.339 308.044 286.73 323.453 303.35 334.678C311.173 339.968 317.796 340.169 323.012 341.577C339.322 345.983 358.943 366.742 372.458 439.722C369.105 443.423 365.773 447.125 362.42 450.806C345.075 412.988 323.716 390.398 307.758 376.88C275.325 349.402 249.764 346.385 218.552 315.346C197.503 294.406 185.664 272.46 179.124 257.876C191.253 245.324 203.361 232.771 215.448 220.239Z" fill="url(#paint15_linear_405_7)"/>
<path d="M202.285 233.878C227.08 237.318 235.711 245.324 238.96 252.163C243.99 262.744 236.166 270.468 238.277 291.831C238.691 296.036 240.658 316.01 252.103 330.152C269.075 351.112 294.367 343.81 315.044 355.357C328.953 363.122 343.317 380.844 347.911 423.791C334.106 401.643 319.473 386.818 307.738 376.901C275.305 349.423 249.744 346.405 218.532 315.367C197.483 294.426 185.644 272.48 179.104 257.896C186.865 249.87 194.585 241.884 202.285 233.878Z" fill="url(#paint16_linear_405_7)"/>
<path d="M222.195 222.874C233.061 228.305 243.555 240.656 242.624 253.953C241.754 266.183 231.468 276.1 221.637 280.626C204.437 288.532 193.364 277.77 158.054 277.589C137.543 277.488 118.936 281.009 118.626 285.112C118.336 288.994 134.977 288.693 144.912 301.587C148.678 306.475 149.796 311.082 152.528 329.829C153.998 339.907 155.695 352.641 157.371 367.466C155.198 369.82 153.046 372.173 150.872 374.527C131.024 352.802 101.302 318.283 79.7977 283.422C76.6103 278.253 72.4502 271.192 74.6027 263.87C78.7629 249.648 102.172 250.111 148.885 237.156C193.964 224.604 205.969 214.767 222.195 222.874Z" fill="url(#paint17_linear_405_7)"/>
<path d="M124.504 263.93L110.326 256.327C154.95 240.737 205.1 235.467 235.483 233.696C239.085 238.182 241.713 243.453 242.458 249.045C183.554 248.079 124.504 263.93 124.504 263.93Z" fill="url(#paint18_linear_405_7)"/>
<path d="M134.79 270.307L128.395 267.29C174.612 254.697 222.547 256.226 242.044 257.674C240.305 265.177 235.131 271.594 229.108 276.121C191.439 264.494 134.79 270.307 134.79 270.307Z" fill="url(#paint19_linear_405_7)"/>
<path d="M374.197 431.917C374.197 431.917 379.392 435.035 381.42 434.954C383.448 434.874 390.713 433.586 389.802 440.325C388.892 447.064 383.138 475.588 380.116 482.488C377.094 489.407 374.983 491.399 367.429 490.212C364.262 489.709 369.457 482.126 368.65 477.962C367.843 473.798 358.777 447.788 358.777 447.788C358.777 447.788 366.456 439.38 367.139 436.704C367.822 434.049 369.395 428.879 374.197 431.917Z" fill="url(#paint20_linear_405_7)"/>
<path d="M377.26 470.177V448.231C377.26 444.65 378.108 441.13 379.743 437.932L381.275 434.955C381.316 434.955 381.379 434.954 381.42 434.954C383.448 434.874 393.569 430.992 391.479 441.07C390.113 447.728 383.779 477.399 380.758 484.318C377.736 491.238 373.948 491.983 366.373 490.776C365.028 490.575 366.228 488.523 366.787 486.551L370.74 483.433C374.879 480.195 377.26 475.327 377.26 470.177Z" fill="#B2B8C1"/>
<path d="M162.67 360.506C162.67 360.506 167.554 363.443 169.458 363.362C171.363 363.282 178.172 362.075 177.323 368.411C176.475 374.728 171.073 401.462 168.237 407.959C165.402 414.436 163.435 416.307 156.336 415.201C153.377 414.738 158.24 407.637 157.475 403.715C156.709 399.812 148.223 375.432 148.223 375.432C148.223 375.432 155.426 367.546 156.067 365.032C156.688 362.518 158.158 357.67 162.67 360.506Z" fill="url(#paint21_linear_405_7)"/>
<path d="M165.547 396.393V375.814C165.547 372.455 166.354 369.156 167.886 366.159L169.314 363.363C169.355 363.363 169.417 363.362 169.458 363.362C171.363 363.282 180.842 359.641 178.897 369.096C177.614 375.352 171.694 403.172 168.838 409.649C166.002 416.126 162.442 416.83 155.364 415.704C154.102 415.503 155.219 413.592 155.757 411.741L159.462 408.824C163.291 405.787 165.547 401.221 165.547 396.393Z" fill="white"/>
<defs>
<linearGradient id="paint0_linear_405_7" x1="230.648" y1="342.03" x2="184.428" y2="146.936" gradientUnits="userSpaceOnUse">
<stop stop-color="#FF9085"/>
<stop offset="1" stop-color="#FB6FBB"/>
</linearGradient>
<linearGradient id="paint1_linear_405_7" x1="230.656" y1="342.031" x2="184.435" y2="146.94" gradientUnits="userSpaceOnUse">
<stop stop-color="#FF9085"/>
<stop offset="1" stop-color="#FB6FBB"/>
</linearGradient>
<linearGradient id="paint2_linear_405_7" x1="215.6" y1="303.124" x2="278.128" y2="596.686" gradientUnits="userSpaceOnUse">
<stop stop-color="#FFC444"/>
<stop offset="0.9964" stop-color="#F36F56"/>
</linearGradient>
<linearGradient id="paint3_linear_405_7" x1="215.076" y1="303.381" x2="277.49" y2="596.999" gradientUnits="userSpaceOnUse">
<stop stop-color="#FFC444"/>
<stop offset="0.9964" stop-color="#F36F56"/>
</linearGradient>
<linearGradient id="paint4_linear_405_7" x1="3.84888" y1="-267.717" x2="689.975" y2="666.753" gradientUnits="userSpaceOnUse">
<stop stop-color="#444B8C"/>
<stop offset="0.9964" stop-color="#26264F"/>
</linearGradient>
<linearGradient id="paint5_linear_405_7" x1="105.799" y1="44.7398" x2="731.061" y2="630.949" gradientUnits="userSpaceOnUse">
<stop stop-color="#FFC444"/>
<stop offset="0.9964" stop-color="#F36F56"/>
</linearGradient>
<linearGradient id="paint6_linear_405_7" x1="226.42" y1="-314.227" x2="240.161" y2="311.739" gradientUnits="userSpaceOnUse">
<stop stop-color="#311944"/>
<stop offset="1" stop-color="#A03976"/>
</linearGradient>
<linearGradient id="paint7_linear_405_7" x1="-0.0432125" y1="245.599" x2="463.039" y2="245.599" gradientUnits="userSpaceOnUse">
<stop stop-color="#311944"/>
<stop offset="1" stop-color="#A03976"/>
</linearGradient>
<linearGradient id="paint8_linear_405_7" x1="223.759" y1="681.419" x2="-15.8803" y2="6091.78" gradientUnits="userSpaceOnUse">
<stop stop-color="#FFC444"/>
<stop offset="0.9964" stop-color="#F36F56"/>
</linearGradient>
<linearGradient id="paint9_linear_405_7" x1="297.454" y1="-942.004" x2="260.464" y2="2222.73" gradientUnits="userSpaceOnUse">
<stop stop-color="#FFC444"/>
<stop offset="0.9964" stop-color="#F36F56"/>
</linearGradient>
<linearGradient id="paint10_linear_405_7" x1="0.00957477" y1="245.826" x2="463.011" y2="245.826" gradientUnits="userSpaceOnUse">
<stop offset="0.00359712" stop-color="#E38DDD"/>
<stop offset="1" stop-color="#9571F6"/>
</linearGradient>
<linearGradient id="paint11_linear_405_7" x1="0.0147303" y1="245.702" x2="463.059" y2="245.702" gradientUnits="userSpaceOnUse">
<stop offset="0.00359712" stop-color="#E38DDD"/>
<stop offset="1" stop-color="#9571F6"/>
</linearGradient>
<linearGradient id="paint12_linear_405_7" x1="-0.032096" y1="245.796" x2="462.942" y2="245.796" gradientUnits="userSpaceOnUse">
<stop offset="0.00359712" stop-color="#E38DDD"/>
<stop offset="1" stop-color="#9571F6"/>
</linearGradient>
<linearGradient id="paint13_linear_405_7" x1="-0.0791848" y1="245.715" x2="462.992" y2="245.715" gradientUnits="userSpaceOnUse">
<stop stop-color="#FFC444"/>
<stop offset="0.9964" stop-color="#F36F56"/>
</linearGradient>
<linearGradient id="paint14_linear_405_7" x1="498.957" y1="730.816" x2="-280.597" y2="-1273.88" gradientUnits="userSpaceOnUse">
<stop stop-color="#FFC444"/>
<stop offset="0.9964" stop-color="#F36F56"/>
</linearGradient>
<linearGradient id="paint15_linear_405_7" x1="-0.0268595" y1="245.851" x2="462.954" y2="245.851" gradientUnits="userSpaceOnUse">
<stop offset="0.00359712" stop-color="#E38DDD"/>
<stop offset="1" stop-color="#9571F6"/>
</linearGradient>
<linearGradient id="paint16_linear_405_7" x1="-0.0684839" y1="245.848" x2="462.891" y2="245.848" gradientUnits="userSpaceOnUse">
<stop offset="0.00359712" stop-color="#E38DDD"/>
<stop offset="1" stop-color="#9571F6"/>
</linearGradient>
<linearGradient id="paint17_linear_405_7" x1="0.0289294" y1="245.821" x2="463.047" y2="245.821" gradientUnits="userSpaceOnUse">
<stop offset="0.00359712" stop-color="#E38DDD"/>
<stop offset="1" stop-color="#9571F6"/>
</linearGradient>
<linearGradient id="paint18_linear_405_7" x1="27.647" y1="1654.04" x2="595.749" y2="1463.19" gradientUnits="userSpaceOnUse">
<stop offset="0.494" stop-color="#EBEFF2"/>
<stop offset="1" stop-color="white"/>
</linearGradient>
<linearGradient id="paint19_linear_405_7" x1="29.4273" y1="1991.18" x2="721.039" y2="1817.89" gradientUnits="userSpaceOnUse">
<stop offset="0.494" stop-color="#EBEFF2"/>
<stop offset="1" stop-color="white"/>
</linearGradient>
<linearGradient id="paint20_linear_405_7" x1="-0.0659702" y1="245.868" x2="463.22" y2="245.868" gradientUnits="userSpaceOnUse">
<stop stop-color="#311944"/>
<stop offset="1" stop-color="#A03976"/>
</linearGradient>
<linearGradient id="paint21_linear_405_7" x1="0.338446" y1="245.763" x2="463.456" y2="245.763" gradientUnits="userSpaceOnUse">
<stop stop-color="#311944"/>
<stop offset="1" stop-color="#A03976"/>
</linearGradient>
</defs>
</svg>
